<?xml version="1.0" encoding="UTF-8" standalone="no"?>
<!DOCTYPE svg PUBLIC "-//W3C//DTD SVG 1.1//EN"
 "http://www.w3.org/Graphics/SVG/1.1/DTD/svg11.dtd">
<!-- Generated by graphviz version 2.40.1 (20161225.0304)
 -->
<!-- Title: %0 Pages: 1 -->
<svg width="604pt" height="332pt"
 viewBox="0.00 0.00 604.49 332.00" xmlns="http://www.w3.org/2000/svg" xmlns:xlink="http://www.w3.org/1999/xlink">
<g id="graph0" class="graph" transform="scale(1 1) rotate(0) translate(4 328)">
<title>%0</title>
<polygon fill="#ffffff" stroke="transparent" points="-4,4 -4,-328 600.4894,-328 600.4894,4 -4,4"/>
<!-- [root] azurerm_container_group.weatherapi_group (expand) -->
<g id="node1" class="node">
<title>[root] azurerm_container_group.weatherapi_group (expand)</title>
<polygon fill="none" stroke="#000000" points="430.9139,-180 165.5754,-180 165.5754,-144 430.9139,-144 430.9139,-180"/>
<text text-anchor="middle" x="298.2447" y="-157.8" font-family="Times,serif" font-size="14.00" fill="#000000">azurerm_container_group.weatherapi_group</text>
</g>
<!-- [root] azurerm_resource_group.weather_api (expand) -->
<g id="node2" class="node">
<title>[root] azurerm_resource_group.weather_api (expand)</title>
<polygon fill="none" stroke="#000000" points="412.0773,-108 184.412,-108 184.412,-72 412.0773,-72 412.0773,-108"/>
<text text-anchor="middle" x="298.2447" y="-85.8" font-family="Times,serif" font-size="14.00" fill="#000000">azurerm_resource_group.weather_api</text>
</g>
<!-- [root] azurerm_container_group.weatherapi_group (expand)&#45;&gt;[root] azurerm_resource_group.weather_api (expand) -->
<g id="edge1" class="edge">
<title>[root] azurerm_container_group.weatherapi_group (expand)&#45;&gt;[root] azurerm_resource_group.weather_api (expand)</title>
<path fill="none" stroke="#000000" d="M298.2447,-143.8314C298.2447,-136.131 298.2447,-126.9743 298.2447,-118.4166"/>
<polygon fill="#000000" stroke="#000000" points="301.7448,-118.4132 298.2447,-108.4133 294.7448,-118.4133 301.7448,-118.4132"/>
</g>
<!-- [root] provider[&quot;registry.terraform.io/hashicorp/azurerm&quot;] -->
<g id="node3" class="node">
<title>[root] provider[&quot;registry.terraform.io/hashicorp/azurerm&quot;]</title>
<polygon fill="none" stroke="#000000" points="298.2447,-36 -.2449,-18 298.2447,0 596.7343,-18 298.2447,-36"/>
<text text-anchor="middle" x="298.2447" y="-13.8" font-family="Times,serif" font-size="14.00" fill="#000000">provider[&quot;registry.terraform.io/hashicorp/azurerm&quot;]</text>
</g>
<!-- [root] azurerm_resource_group.weather_api (expand)&#45;&gt;[root] provider[&quot;registry.terraform.io/hashicorp/azurerm&quot;] -->
<g id="edge2" class="edge">
<title>[root] azurerm_resource_group.weather_api (expand)&#45;&gt;[root] provider[&quot;registry.terraform.io/hashicorp/azurerm&quot;]</title>
<path fill="none" stroke="#000000" d="M298.2447,-71.8314C298.2447,-64.131 298.2447,-54.9743 298.2447,-46.4166"/>
<polygon fill="#000000" stroke="#000000" points="301.7448,-46.4132 298.2447,-36.4133 294.7448,-46.4133 301.7448,-46.4132"/>
</g>
<!-- [root] provider[&quot;registry.terraform.io/hashicorp/azurerm&quot;] (close) -->
<g id="node4" class="node">
<title>[root] provider[&quot;registry.terraform.io/hashicorp/azurerm&quot;] (close)</title>
<ellipse fill="none" stroke="#000000" cx="298.2447" cy="-234" rx="263.9501" ry="18"/>
<text text-anchor="middle" x="298.2447" y="-229.8" font-family="Times,serif" font-size="14.00" fill="#000000">[root] provider[&quot;registry.terraform.io/hashicorp/azurerm&quot;] (close)</text>
</g>
<!-- [root] provider[&quot;registry.terraform.io/hashicorp/azurerm&quot;] (close)&#45;&gt;[root] azurerm_container_group.weatherapi_group (expand) -->
<g id="edge3" class="edge">
<title>[root] provider[&quot;registry.terraform.io/hashicorp/azurerm&quot;] (close)&#45;&gt;[root] azurerm_container_group.weatherapi_group (expand)</title>
<path fill="none" stroke="#000000" d="M298.2447,-215.8314C298.2447,-208.131 298.2447,-198.9743 298.2447,-190.4166"/>
<polygon fill="#000000" stroke="#000000" points="301.7448,-190.4132 298.2447,-180.4133 294.7448,-190.4133 301.7448,-190.4132"/>
</g>
<!-- [root] root -->
<g id="node5" class="node">
<title>[root] root</title>
<ellipse fill="none" stroke="#000000" cx="298.2447" cy="-306" rx="50.9823" ry="18"/>
<text text-anchor="middle" x="298.2447" y="-301.8" font-family="Times,serif" font-size="14.00" fill="#000000">[root] root</text>
</g>
<!-- [root] root&#45;&gt;[root] provider[&quot;registry.terraform.io/hashicorp/azurerm&quot;] (close) -->
<g id="edge4" class="edge">
<title>[root] root&#45;&gt;[root] provider[&quot;registry.terraform.io/hashicorp/azurerm&quot;] (close)</title>
<path fill="none" stroke="#000000" d="M298.2447,-287.8314C298.2447,-280.131 298.2447,-270.9743 298.2447,-262.4166"/>
<polygon fill="#000000" stroke="#000000" points="301.7448,-262.4132 298.2447,-252.4133 294.7448,-262.4133 301.7448,-262.4132"/>
</g>
</g>
</svg>
